<?xml version="1.0" encoding="utf-8"?>
<!-- Svg Vector Icons : http://www.onlinewebfonts.com/icon -->
<!DOCTYPE svg PUBLIC "-//W3C//DTD SVG 1.1//EN" "http://www.w3.org/Graphics/SVG/1.1/DTD/svg11.dtd">
<svg version="1.1" xmlns="http://www.w3.org/2000/svg" xmlns:xlink="http://www.w3.org/1999/xlink" x="0px" y="0px" viewBox="0 0 256 256" enable-background="new 0 0 256 256" xml:space="preserve">
<metadata> Svg Vector Icons : http://www.onlinewebfonts.com/icon </metadata>
<g><g><path fill="#000000" d="M81.5,95.7c-1.5,0-3-0.5-4.2-1.6c-2.3-2.1-2.3-5.5,0-7.6l70.7-64.7c2.3-2.1,6-2.1,8.3,0L214.7,75c1.1,1,1.7,2.4,1.7,3.8c0,1.4-0.6,2.8-1.7,3.8l-12.5,11.4c-2.3,2.1-6,2.1-8.3,0c-2.3-2.1-2.3-5.5,0-7.6l8.3-7.6l-49.9-45.6L85.7,94.1C84.6,95.1,83.1,95.7,81.5,95.7L81.5,95.7z M57,95.7c-1,0-2-0.2-3-0.7c-2.8-1.5-3.8-4.8-2.1-7.4l41.2-64.8c1.6-2.6,5.2-3.4,8-2l34.5,18.1c2.8,1.5,3.8,4.8,2.2,7.4c-1.6,2.6-5.2,3.5-8,2l-29.4-15.4L62.1,93C61,94.7,59,95.7,57,95.7L57,95.7z M216.5,235.9h-177c-16.3,0-29.5-12.1-29.5-27v-97.1c0-14.9,13.2-27,29.5-27h177c16.3,0,29.5,12.1,29.5,27v97.1C246,223.8,232.8,235.9,216.5,235.9L216.5,235.9z M39.5,95.7c-9.8,0-17.7,7.2-17.7,16.2v97.1c0,8.9,7.9,16.2,17.7,16.2h177c9.8,0,17.7-7.3,17.7-16.2v-97.1c0-8.9-7.9-16.2-17.7-16.2H39.5L39.5,95.7z M198.8,181.9c-13,0-23.6-9.7-23.6-21.6s10.6-21.6,23.6-21.6c13,0,23.6,9.7,23.6,21.6S211.8,181.9,198.8,181.9L198.8,181.9z M198.8,149.6c-6.5,0-11.8,4.8-11.8,10.8s5.3,10.8,11.8,10.8c6.5,0,11.8-4.8,11.8-10.8S205.3,149.6,198.8,149.6L198.8,149.6z"/></g></g>
</svg>