<?xml version="1.0" encoding="utf-8"?>
<!-- Generator: Adobe Illustrator 21.0.0, SVG Export Plug-In . SVG Version: 6.00 Build 0)  -->
<svg version="1.1" id="Layer_1" xmlns="http://www.w3.org/2000/svg" xmlns:xlink="http://www.w3.org/1999/xlink" x="0px" y="0px"
	 viewBox="0 0 512 512" style="enable-background:new 0 0 512 512;" xml:space="preserve">
<g>
	<path d="M397.7,37.9c-38.4,0-69.6,31.2-69.6,69.6c0,31.1,20.6,57.5,48.8,66.4v59.6l-240.1,78.7V135.5c27.5-9.3,47.2-35.4,47.2-65.9
		c0-38.4-31.2-69.6-69.6-69.6S44.8,31.2,44.8,69.6c0,30.6,19.8,56.5,47.2,65.9v241c-27.5,9.3-47.2,35.4-47.2,65.9
		c0,38.4,31.2,69.6,69.6,69.6s69.6-31.2,69.6-69.6c0-30.6-19.8-56.5-47.2-65.9v-17.3l263.1-86.2c13-4.2,21.7-16.3,21.7-29.9v-70.3
		c26.7-9.8,45.7-35.4,45.7-65.4C467.2,69.1,436,37.9,397.7,37.9z M84.5,69.6c0.3-16.5,14-29.5,30.4-29.2c16,0.3,28.9,13.2,29.2,29.2
		c-0.3,16.5-14,29.5-30.4,29.2C97.7,98.5,84.9,85.6,84.5,69.6z M144.2,442.4c-0.3,16.5-14,29.5-30.4,29.2
		c-16-0.3-28.9-13.2-29.2-29.2c0.3-16.5,14-29.5,30.4-29.2C131,413.5,143.8,426.4,144.2,442.4z M397.7,137.3
		c-16.5-0.3-29.5-14-29.2-30.4c0.3-16,13.2-28.9,29.2-29.2c16.5,0.3,29.5,14,29.2,30.4C426.5,124.1,413.6,137,397.7,137.3z"/>
</g>
</svg>
